<?xml version="1.0" encoding="UTF-8" standalone="no"?>
<svg
   xmlns:dc="http://purl.org/dc/elements/1.1/"
   xmlns:cc="http://creativecommons.org/ns#"
   xmlns:rdf="http://www.w3.org/1999/02/22-rdf-syntax-ns#"
   xmlns:svg="http://www.w3.org/2000/svg"
   xmlns="http://www.w3.org/2000/svg"
   xmlns:sodipodi="http://sodipodi.sourceforge.net/DTD/sodipodi-0.dtd"
   xmlns:inkscape="http://www.inkscape.org/namespaces/inkscape"
   inkscape:version="1.0 (4035a4fb49, 2020-05-01)"
   sodipodi:docname="iconmonstr-error-7.svg"
   id="svg4"
   version="1.1"
   viewBox="0 0 24 24">
  <metadata
     id="metadata10">
    <rdf:RDF>
      <cc:Work
         rdf:about="">
        <dc:format>image/svg+xml</dc:format>
        <dc:type
           rdf:resource="http://purl.org/dc/dcmitype/StillImage" />
      </cc:Work>
    </rdf:RDF>
  </metadata>
  <defs
     id="defs8" />
  <sodipodi:namedview
     inkscape:current-layer="svg4"
     inkscape:window-maximized="1"
     inkscape:window-y="0"
     inkscape:window-x="0"
     inkscape:cy="11.969773"
     inkscape:cx="10.443325"
     inkscape:zoom="33.083333"
     showgrid="false"
     id="namedview6"
     inkscape:window-height="1376"
     inkscape:window-width="2560"
     inkscape:pageshadow="2"
     inkscape:pageopacity="0"
     guidetolerance="10"
     gridtolerance="10"
     objecttolerance="10"
     borderopacity="1"
     bordercolor="#666666"
     pagecolor="#ffffff" />
  <path
     style="fill:#9c1a1a;fill-opacity:1"
     id="path2"
     d="M16.971 0h-9.942l-7.029 7.029v9.941l7.029 7.03h9.941l7.03-7.029v-9.942l-7.029-7.029zm-1.402 16.945l-3.554-3.521-3.518 3.568-1.418-1.418 3.507-3.566-3.586-3.472 1.418-1.417 3.581 3.458 3.539-3.583 1.431 1.431-3.535 3.568 3.566 3.522-1.431 1.43z" />
  <path
     id="path835"
     d="M 7.789364,16.267958 7.1005083,15.578613 8.3005137,14.356057 C 8.9605168,13.683651 9.7509965,12.880792 10.057135,12.571925 L 10.613752,12.010348 8.8282864,10.280125 C 7.8462805,9.3285028 7.0428212,8.5405473 7.0428212,8.529113 c 0,-0.011434 0.3094458,-0.3289227 0.6876574,-0.7055296 L 8.418136,7.1388435 10.020151,8.6931872 c 0.881108,0.8548891 1.688902,1.6323088 1.795097,1.7275988 l 0.193082,0.173255 1.762386,-1.7831665 1.762386,-1.7831667 0.704369,0.7027397 0.70437,0.7027396 -1.178805,1.1864291 C 15.114694,10.272152 14.32058,11.073261 13.998339,11.399858 l -0.585893,0.593813 1.432746,1.416263 c 0.788011,0.778944 1.588976,1.569032 1.779923,1.75575 l 0.347177,0.339487 -0.702658,0.70314 -0.702658,0.70314 -0.566863,-0.558916 c -0.311775,-0.307404 -1.105891,-1.094517 -1.764702,-1.749141 -0.658812,-0.654624 -1.211991,-1.18514 -1.229287,-1.178926 -0.0173,0.0062 -0.807891,0.800217 -1.756876,1.764449 -0.9489846,0.964232 -1.7356871,1.756577 -1.7482275,1.760767 -0.01254,0.0042 -0.3327859,-0.302587 -0.7116565,-0.681726 z"
     style="fill:#ffffff;fill-opacity:1;stroke-width:0.0302267" />
  <path
     id="path837"
     d="M 7.7883456,16.266939 7.0985946,15.576698 8.2245284,14.430666 C 8.843792,13.800349 9.6344866,12.998151 9.9816276,12.648005 L 10.612793,12.011374 8.827807,10.280684 C 7.8460648,9.3288039 7.0428212,8.5406175 7.0428212,8.5291582 c 0,-0.011459 0.3094458,-0.3290867 0.6876574,-0.7058388 L 8.418136,7.1383156 9.9596977,8.6326577 c 0.8478593,0.8218881 1.6554663,1.5993233 1.7946833,1.7276343 l 0.253121,0.233293 1.762396,-1.7829384 1.762396,-1.7829388 0.69739,0.6950292 c 0.383565,0.3822661 0.693963,0.7034743 0.689773,0.7137959 -0.0042,0.010322 -0.789734,0.8104319 -1.745653,1.7780231 -0.95592,0.967591 -1.738036,1.769047 -1.738036,1.781015 0,0.01197 0.788917,0.800533 1.753149,1.75237 0.964232,0.951837 1.756577,1.740339 1.760767,1.752226 0.0042,0.01189 -0.305016,0.334026 -0.687125,0.715864 l -0.694743,0.694251 -0.46149,-0.452185 c -0.253819,-0.248701 -1.035724,-1.022872 -1.737567,-1.720381 -0.701842,-0.697509 -1.296252,-1.279488 -1.320911,-1.293288 -0.04282,-0.02396 -0.576374,0.503954 -3.0385665,3.006454 -0.2739784,0.278463 -0.5055771,0.506297 -0.5146637,0.506297 -0.00909,0 -0.3269092,-0.310608 -0.7062722,-0.69024 z"
     style="fill:#ffffff;fill-opacity:1;stroke-width:0.0302267" />
</svg>
