<?xml version="1.0" encoding="UTF-8" standalone="no"?>
<svg
   xmlns:dc="http://purl.org/dc/elements/1.1/"
   xmlns:cc="http://creativecommons.org/ns#"
   xmlns:rdf="http://www.w3.org/1999/02/22-rdf-syntax-ns#"
   xmlns:svg="http://www.w3.org/2000/svg"
   xmlns="http://www.w3.org/2000/svg"
   xmlns:sodipodi="http://sodipodi.sourceforge.net/DTD/sodipodi-0.dtd"
   xmlns:inkscape="http://www.inkscape.org/namespaces/inkscape"
   inkscape:version="1.0 (4035a4fb49, 2020-05-01)"
   sodipodi:docname="iconmonstr-check-mark-4.svg"
   id="svg4"
   version="1.1"
   viewBox="0 0 24 24">
  <metadata
     id="metadata10">
    <rdf:RDF>
      <cc:Work
         rdf:about="">
        <dc:format>image/svg+xml</dc:format>
        <dc:type
           rdf:resource="http://purl.org/dc/dcmitype/StillImage" />
      </cc:Work>
    </rdf:RDF>
  </metadata>
  <defs
     id="defs8" />
  <sodipodi:namedview
     inkscape:current-layer="svg4"
     inkscape:window-maximized="1"
     inkscape:window-y="0"
     inkscape:window-x="0"
     inkscape:cy="11.969773"
     inkscape:cx="6.1813602"
     inkscape:zoom="33.083333"
     showgrid="false"
     id="namedview6"
     inkscape:window-height="1376"
     inkscape:window-width="2560"
     inkscape:pageshadow="2"
     inkscape:pageopacity="0"
     guidetolerance="10"
     gridtolerance="10"
     objecttolerance="10"
     borderopacity="1"
     bordercolor="#666666"
     pagecolor="#ffffff" />
  <path
     style="fill:#20c997"
     id="path2"
     d="M12 0c-6.627 0-12 5.373-12 12s5.373 12 12 12 12-5.373 12-12-5.373-12-12-12zm-1.25 17.292l-4.5-4.364 1.857-1.858 2.643 2.506 5.643-5.784 1.857 1.857-7.5 7.643z" />
  <path
     id="path14"
     d="M 11.425693,23.967388 C 9.6024997,23.886784 7.7228823,23.348719 6.1409788,22.454572 5.687539,22.198272 4.9527863,21.701633 4.5491184,21.378592 1.9935375,19.333451 0.41459864,16.442881 0.07010417,13.178841 0.01084161,12.617336 0.02003494,11.218695 0.08659474,10.670025 0.40399381,8.0536217 1.4720939,5.7307421 3.2228654,3.8493355 5.2583483,1.6619737 7.952153,0.34210286 10.957179,0.05979042 c 0.449219,-0.04220272 1.639565,-0.04200542 2.085642,3.457e-4 1.591113,0.15106228 2.978727,0.54923733 4.367758,1.25332638 3.396097,1.7214545 5.77526,4.9500868 6.405843,8.6930195 0.122524,0.72726 0.153452,1.139655 0.151772,2.023745 -0.0017,0.892356 -0.04417,1.392585 -0.181377,2.136271 -0.748367,4.056172 -3.54214,7.452162 -7.388832,8.981548 -1.147407,0.456192 -2.541643,0.762782 -3.672544,0.807585 -0.216121,0.0086 -0.48136,0.01982 -0.589421,0.02502 -0.10806,0.0052 -0.427708,-7.7e-4 -0.710327,-0.01326 z m 0.156609,-7.501393 c 0.44824,-0.453023 1.91455,-1.945844 3.258467,-3.31738 1.343917,-1.371537 2.665704,-2.71825 2.937306,-2.992696 L 18.271896,9.6569269 17.327384,8.7148706 16.382872,7.7728141 13.571815,10.657197 c -1.546081,1.58641 -2.819833,2.880978 -2.830559,2.876817 -0.01585,-0.0061 -1.5521278,-1.45673 -2.4225858,-2.287445 L 8.1134113,11.050682 7.1775666,11.986161 c -0.5147144,0.514513 -0.9324232,0.944233 -0.928242,0.954932 0.013722,0.03511 4.4733924,4.34858 4.4959704,4.34858 0.01211,0 0.388767,-0.370655 0.837007,-0.823678 z"
     style="fill:none;stroke-width:0.0302267" />
  <path
     id="path16"
     d="M 11.425693,23.967388 C 9.6024997,23.886784 7.7228823,23.348719 6.1409788,22.454572 5.687539,22.198272 4.9527863,21.701633 4.5491184,21.378592 1.9935375,19.333451 0.41459864,16.442881 0.07010417,13.178841 0.01084161,12.617336 0.02003494,11.218695 0.08659474,10.670025 0.40399381,8.0536217 1.4720939,5.7307421 3.2228654,3.8493355 5.2583483,1.6619737 7.952153,0.34210286 10.957179,0.05979042 c 0.449219,-0.04220272 1.639565,-0.04200542 2.085642,3.457e-4 1.591113,0.15106228 2.978727,0.54923733 4.367758,1.25332638 3.396097,1.7214545 5.77526,4.9500868 6.405843,8.6930195 0.122524,0.72726 0.153452,1.139655 0.151772,2.023745 -0.0017,0.892356 -0.04417,1.392585 -0.181377,2.136271 -0.748367,4.056172 -3.54214,7.452162 -7.388832,8.981548 -1.147407,0.456192 -2.541643,0.762782 -3.672544,0.807585 -0.216121,0.0086 -0.48136,0.01982 -0.589421,0.02502 -0.10806,0.0052 -0.427708,-7.7e-4 -0.710327,-0.01326 z m 0.156609,-7.501393 c 0.44824,-0.453023 1.91455,-1.945844 3.258467,-3.31738 1.343917,-1.371537 2.665704,-2.71825 2.937306,-2.992696 L 18.271896,9.6569269 17.327384,8.7148706 16.382872,7.7728141 13.571815,10.657197 c -1.546081,1.58641 -2.819833,2.880978 -2.830559,2.876817 -0.01585,-0.0061 -1.5521278,-1.45673 -2.4225858,-2.287445 L 8.1134113,11.050682 7.1775666,11.986161 c -0.5147144,0.514513 -0.9324232,0.944233 -0.928242,0.954932 0.013722,0.03511 4.4733924,4.34858 4.4959704,4.34858 0.01211,0 0.388767,-0.370655 0.837007,-0.823678 z"
     style="fill:none;stroke-width:0.0302267" />
  <path
     id="path843"
     d="M 8.5843829,15.171059 C 7.4040302,14.024429 6.4009706,13.049123 6.3553615,13.003712 l -0.082926,-0.08257 0.915447,-0.915077 0.9154469,-0.915078 1.3261452,1.256974 c 1.0605874,1.005268 1.3333764,1.249116 1.3622554,1.217729 0.06205,-0.06744 5.055202,-5.1932784 5.338006,-5.4798561 L 16.398,7.8139952 17.304841,8.7204579 c 0.498762,0.4985545 0.903419,0.9155801 0.899236,0.9267235 -0.01264,0.033672 -0.422328,0.4540256 -3.663022,3.7583606 -1.711972,1.745592 -3.262151,3.326826 -3.444841,3.513853 -0.182691,0.187028 -0.339718,0.33924 -0.34895,0.338248 -0.0092,-9.91e-4 -0.9825285,-0.939954 -2.1628811,-2.086584 z"
     style="fill:#ffffff;stroke-width:0.0302267" />
</svg>
