<?xml version="1.0" encoding="UTF-8" standalone="no"?>
<svg
   xmlns:dc="http://purl.org/dc/elements/1.1/"
   xmlns:cc="http://creativecommons.org/ns#"
   xmlns:rdf="http://www.w3.org/1999/02/22-rdf-syntax-ns#"
   xmlns:svg="http://www.w3.org/2000/svg"
   xmlns="http://www.w3.org/2000/svg"
   xmlns:sodipodi="http://sodipodi.sourceforge.net/DTD/sodipodi-0.dtd"
   xmlns:inkscape="http://www.inkscape.org/namespaces/inkscape"
   inkscape:version="1.0 (4035a4fb49, 2020-05-01)"
   sodipodi:docname="iconmonstr-warning-7.svg"
   id="svg4"
   version="1.1"
   viewBox="0 0 24 24">
  <metadata
     id="metadata10">
    <rdf:RDF>
      <cc:Work
         rdf:about="">
        <dc:format>image/svg+xml</dc:format>
        <dc:type
           rdf:resource="http://purl.org/dc/dcmitype/StillImage" />
      </cc:Work>
    </rdf:RDF>
  </metadata>
  <defs
     id="defs8" />
  <sodipodi:namedview
     inkscape:current-layer="svg4"
     inkscape:window-maximized="1"
     inkscape:window-y="0"
     inkscape:window-x="0"
     inkscape:cy="11.969773"
     inkscape:cx="12"
     inkscape:zoom="33.083333"
     showgrid="false"
     id="namedview6"
     inkscape:window-height="1376"
     inkscape:window-width="2560"
     inkscape:pageshadow="2"
     inkscape:pageopacity="0"
     guidetolerance="10"
     gridtolerance="10"
     objecttolerance="10"
     borderopacity="1"
     bordercolor="#666666"
     pagecolor="#ffffff" />
  <path
     style="fill:#ffcc00"
     id="path2"
     d="M12 1l-12 22h24l-12-22zm-1 8h2v7h-2v-7zm1 11.25c-.69 0-1.25-.56-1.25-1.25s.56-1.25 1.25-1.25 1.25.56 1.25 1.25-.56 1.25-1.25 1.25z" />
  <path
     id="path835"
     d="M 11.002519,12.498741 V 9.0075567 H 12 12.997481 v 3.4911843 3.491183 H 12 11.002519 Z"
     style="fill:#ffffff;stroke-width:0.0302267" />
  <path
     id="path837"
     d="M 11.566699,20.149104 C 11.31889,20.045251 11.16363,19.930017 11.026123,19.74789 10.545468,19.111267 10.75911,18.24243 11.484064,17.885536 11.668359,17.794808 11.702329,17.788413 12,17.788413 c 0.298115,0 0.331452,0.0063 0.517272,0.09778 0.501781,0.247027 0.794146,0.795956 0.698334,1.311158 -0.07576,0.407371 -0.32789,0.739043 -0.693432,0.912192 -0.178882,0.08473 -0.241125,0.09805 -0.491947,0.105242 -0.247839,0.0071 -0.311302,-0.0019 -0.463528,-0.06568 z"
     style="fill:#ffffff;stroke-width:0.0302267" />
  <path
     id="path839"
     d="M 11.002519,12.498741 V 9.0075567 H 12 12.997481 v 3.4911843 3.491183 H 12 11.002519 Z"
     style="fill:#ffffff;stroke-width:0.0302267" />
  <path
     id="path841"
     d="m 11.562893,20.147557 c -0.467475,-0.195787 -0.746738,-0.568462 -0.792401,-1.057453 -0.02019,-0.216214 0.04567,-0.510834 0.15645,-0.699866 0.112618,-0.192168 0.339172,-0.397405 0.557122,-0.504702 0.184295,-0.09073 0.218265,-0.09712 0.515936,-0.09712 0.298115,0 0.331452,0.0063 0.517272,0.09778 0.504239,0.248237 0.794615,0.793432 0.698334,1.311158 -0.07576,0.407371 -0.32789,0.739043 -0.693432,0.912192 -0.178882,0.08473 -0.241125,0.09805 -0.491947,0.105242 -0.249274,0.0071 -0.310922,-0.0017 -0.467334,-0.06723 z"
     style="fill:#ffffff;stroke-width:0.0302267" />
</svg>
