<?xml version="1.0" encoding="UTF-8" standalone="no"?>
<svg
   xmlns:dc="http://purl.org/dc/elements/1.1/"
   xmlns:cc="http://creativecommons.org/ns#"
   xmlns:rdf="http://www.w3.org/1999/02/22-rdf-syntax-ns#"
   xmlns:svg="http://www.w3.org/2000/svg"
   xmlns="http://www.w3.org/2000/svg"
   xmlns:sodipodi="http://sodipodi.sourceforge.net/DTD/sodipodi-0.dtd"
   xmlns:inkscape="http://www.inkscape.org/namespaces/inkscape"
   inkscape:version="1.0 (4035a4fb49, 2020-05-01)"
   sodipodi:docname="accounting-disabled.svg"
   id="svg4"
   version="1.1"
   viewBox="0 0 24 24"
   height="24"
   width="24">
  <metadata
     id="metadata10">
    <rdf:RDF>
      <cc:Work
         rdf:about="">
        <dc:format>image/svg+xml</dc:format>
        <dc:type
           rdf:resource="http://purl.org/dc/dcmitype/StillImage" />
      </cc:Work>
    </rdf:RDF>
  </metadata>
  <defs
     id="defs8" />
  <sodipodi:namedview
     inkscape:current-layer="svg4"
     inkscape:window-maximized="1"
     inkscape:window-y="0"
     inkscape:window-x="0"
     inkscape:cy="8.9299524"
     inkscape:cx="11.001196"
     inkscape:zoom="64"
     showgrid="false"
     id="namedview6"
     inkscape:window-height="1376"
     inkscape:window-width="2560"
     inkscape:pageshadow="2"
     inkscape:pageopacity="0"
     guidetolerance="10"
     gridtolerance="10"
     objecttolerance="10"
     borderopacity="1"
     bordercolor="#666666"
     pagecolor="#ffffff" />
  <path
     id="path835"
     d="M 6.0453401,16.954139 C 4.1350244,16.754856 2.7000618,15.467256 2.2041763,13.507441 2.0801802,13.017389 2.0337173,12.606499 2.0337173,12 c 0,-1.562548 0.4572247,-2.7812555 1.3954354,-3.7194593 C 3.9352549,7.7744424 4.4371241,7.4589258 5.0595869,7.2555143 6.1972721,6.8837362 7.3491842,6.955991 8.4030227,7.4652347 c 0.8125163,0.3926301 1.497006,0.9758226 2.8846063,2.4577142 0.630816,0.6736821 0.646176,0.6875171 0.704737,0.6347611 0.03293,-0.02966 0.352578,-0.363026 0.710338,-0.7408086 1.18159,-1.2477175 1.956199,-1.8881617 2.78866,-2.3056568 0.659509,-0.330756 1.256654,-0.4765975 1.964555,-0.479806 0.750896,-0.0034 1.352965,0.1279094 1.979849,0.4318103 0.472577,0.2290954 0.823393,0.4838777 1.18917,0.8636403 0.893704,0.9278742 1.340509,2.1521598 1.340509,3.6731108 0,1.504104 -0.444438,2.736751 -1.315132,3.647513 -0.371201,0.388283 -0.714107,0.64074 -1.18432,0.871929 -1.349434,0.663473 -2.891456,0.606691 -4.233755,-0.155901 -0.526616,-0.299183 -0.98474,-0.677556 -1.768215,-1.460403 -0.408388,-0.408061 -0.889867,-0.896054 -1.069953,-1.084429 l -0.327429,-0.3425 -0.746868,0.765674 c -0.818292,0.838897 -1.25268,1.239296 -1.757007,1.61953 -1.1354325,0.856051 -2.304555,1.219251 -3.5174279,1.092726 z m 1.1825286,-1.688842 c 0.6935393,-0.137991 1.3622527,-0.528368 2.0816328,-1.215201 0.408311,-0.389838 0.7636055,-0.788313 1.6694405,-1.872333 0.03589,-0.04295 -0.0227,-0.126202 -0.478541,-0.680101 C 9.192941,9.9089684 8.6330669,9.3678423 7.9193955,9.0030856 7.428632,8.752257 7.0643701,8.6645116 6.5138539,8.6645116 c -0.3921639,0 -0.6030677,0.030976 -0.9370277,0.1376247 -1.0802319,0.3449668 -1.7816309,1.3115707 -1.932318,2.6629447 -0.1322663,1.186174 0.1704266,2.315949 0.8075192,3.013994 0.4683697,0.51318 1.0186995,0.76827 1.8502396,0.857625 0.1871214,0.02011 0.6420538,-0.01499 0.9256017,-0.0714 z m 10.8174713,0.02628 c 0.620914,-0.102496 1.209272,-0.444339 1.608706,-0.934678 0.874913,-1.074029 0.979485,-3.108917 0.225574,-4.3894966 -0.842331,-1.4307679 -2.809704,-1.7406585 -4.33299,-0.6825108 -0.345168,0.2397703 -0.778384,0.6299705 -1.151907,1.0375294 -0.407409,0.444534 -1.382129,1.608379 -1.382129,1.650305 0,0.04697 1.13335,1.396478 1.484698,1.767872 0.640774,0.677335 1.122918,1.057474 1.661117,1.309683 0.583069,0.273235 1.208749,0.353246 1.886931,0.241296 z"
     style="fill:#000000;stroke-width:0.0302267" />
  <path
     id="path853"
     d=""
     style="fill:#000000;stroke-width:0.0302267" />
  <path
     id="path855"
     d=""
     style="fill:#000000;stroke-width:0.0302267" />
  <path
     id="path857"
     d=""
     style="fill:#000000;stroke-width:0.0302267" />
  <path
     id="path859"
     d="M 5.8186398,18.950609 C 3.9027615,18.743781 2.2718039,17.761916 1.2138523,16.178445 0.03546282,14.414711 -0.30339002,11.94223 0.33114698,9.7376763 0.87615216,7.8441807 2.147699,6.3358205 3.8327716,5.5839076 5.1571871,4.9929271 6.7251884,4.857306 8.0856423,5.2160643 9.2800594,5.5310379 10.432317,6.2339761 11.569371,7.3413232 l 0.385491,0.3754202 0.29461,-0.2848298 c 0.958322,-0.9265114 2.008039,-1.6272214 3.012547,-2.0109438 1.097024,-0.4190633 2.361201,-0.5117661 3.583868,-0.262807 2.402688,0.489235 4.240625,2.2966607 4.882624,4.8015691 0.18581,0.7249821 0.237083,1.1662191 0.237083,2.0402681 0,0.874049 -0.05127,1.315286 -0.237083,2.040268 -0.513035,2.001725 -1.808765,3.593816 -3.561283,4.375825 -1.265343,0.564621 -2.722536,0.712761 -4.082875,0.415071 -1.219126,-0.266788 -2.489213,-1.001876 -3.653298,-2.114419 -0.195161,-0.18652 -0.367434,-0.334545 -0.382829,-0.328944 -0.01539,0.0056 -0.184046,0.150376 -0.37478,0.321722 -1.427648,1.282528 -2.6384314,1.929723 -4.0865442,2.184362 -0.4153578,0.07304 -1.34184,0.102758 -1.768262,0.05672 z m 1.4829945,-2.012087 c 0.9113047,-0.156541 1.7212449,-0.569172 2.7026997,-1.376916 0.166634,-0.137141 0.701117,-0.650149 1.18774,-1.140019 l 0.88477,-0.890673 0.366466,0.390714 c 0.602771,0.642654 1.624587,1.647121 1.899259,1.867013 0.388336,0.310885 0.850281,0.611335 1.190714,0.77444 1.076724,0.51587 2.288773,0.584298 3.459853,0.195332 1.378833,-0.45797 2.41759,-1.628542 2.815859,-3.173182 0.132167,-0.512593 0.187936,-0.983003 0.187936,-1.585231 0,-1.572512 -0.469739,-2.8250403 -1.411335,-3.7632311 C 19.841259,7.495123 19.014913,7.1206303 17.879093,7.0102066 16.551349,6.8811241 15.319792,7.352759 13.992573,8.4985817 c -0.305144,0.263439 -1.781069,1.7500983 -1.953207,1.9674133 -0.212204,0.267897 0.0036,0.07159 0.531658,-0.4836272 0.652906,-0.6864853 1.363383,-1.3674635 1.756432,-1.6835069 1.136459,-0.9138056 2.210938,-1.3069664 3.39994,-1.2440659 1.108347,0.058634 2.064562,0.475745 2.811647,1.2264706 0.368603,0.3703995 0.603857,0.6890811 0.830646,1.125217 0.62936,1.2103134 0.759121,2.9419274 0.327989,4.3768924 -0.347212,1.155647 -1.11124,2.117705 -2.098605,2.642544 -0.641328,0.340902 -1.222949,0.496773 -1.94668,0.521699 -0.408344,0.01406 -0.542201,0.0066 -0.85991,-0.04772 -0.867297,-0.148385 -1.644377,-0.526162 -2.4348,-1.183675 -0.166247,-0.138292 -0.751823,-0.704058 -1.30128,-1.257257 l -0.999013,-1.005817 -0.648343,0.669428 c -1.766129,1.82357 -2.7188885,2.468971 -4.0790722,2.763172 -0.3597966,0.07782 -1.261372,0.07821 -1.6462585,7.1e-4 C 5.0783217,16.764556 4.542626,16.54653 4.0573566,16.224534 3.691446,15.981738 3.1712488,15.460127 2.9209698,15.085059 2.2994291,14.153619 1.992233,12.969719 2.0537969,11.743073 2.128589,10.252858 2.5569692,9.1946941 3.4475634,8.3002597 4.0772451,7.6678629 4.7128854,7.3243284 5.6190209,7.1266863 6.0313424,7.0367523 6.9091412,7.0294633 7.2997481,7.1127293 8.0709806,7.2771336 8.7295324,7.5981468 9.4506816,8.161209 c 0.2535443,0.1979634 1.3929504,1.3154073 2.0766954,2.036667 0.202985,0.214121 0.376869,0.381505 0.386411,0.371963 C 11.93562,10.548008 10.698939,9.2362525 10.195723,8.7474756 9.3714759,7.9468812 8.653768,7.472796 7.8686856,7.2103412 6.756872,6.8386593 5.4613445,6.9469753 4.3968429,7.5006137 4.0110928,7.7012391 3.7481114,7.8998749 3.3849023,8.264955 2.5709248,9.0831252 2.1108665,10.183831 2.0101265,11.554156 c -0.056779,0.772342 0.049746,1.688325 0.2750679,2.365239 0.1274896,0.383006 0.3829201,0.902171 0.6057133,1.231118 0.2435984,0.359666 0.7771928,0.894527 1.1141301,1.116776 0.9537978,0.62914 2.1379795,0.870255 3.2965965,0.671233 z M 6.9521411,15.321656 c 0.9974944,-0.12224 1.89467,-0.68538 2.9290262,-1.838494 0.5985987,-0.667326 1.1062387,-1.283999 1.1062387,-1.343841 0,-0.0714 -0.05127,-0.140031 -0.600881,-0.804308 C 9.1718847,9.8669586 8.5807681,9.3113903 7.8605069,8.960903 7.359512,8.7171131 7.1199899,8.6640133 6.5138539,8.6623614 5.9322704,8.6607775 5.6882865,8.711332 5.2292191,8.9285492 4.3621578,9.3388174 3.7957669,10.214759 3.6397418,11.386727 c -0.050607,0.38013 -0.018543,1.24948 0.058294,1.580527 0.2331328,1.004438 0.7317817,1.708776 1.4707296,2.077396 0.5259192,0.262352 1.1332129,0.356681 1.7833757,0.277006 z m 11.2841679,-0.0558 c 0.573832,-0.141253 1.095884,-0.473394 1.44606,-0.920015 0.827307,-1.055163 0.949015,-2.991716 0.268428,-4.271086 C 19.714583,9.6307164 19.452493,9.3449314 19.032593,9.0735376 18.317868,8.6115878 17.29794,8.5182045 16.397985,8.8323156 c -0.805384,0.2811028 -1.464782,0.8215825 -2.555506,2.0946364 -0.524945,0.612699 -0.829885,0.998006 -0.829885,1.048607 0,0.04598 0.36508,0.503047 0.961113,1.203282 0.44805,0.526382 1.127836,1.200616 1.465958,1.453987 0.468176,0.350826 1.058816,0.616338 1.532627,0.688966 0.301993,0.04629 0.968546,0.01679 1.264017,-0.05594 z"
     style="fill:#000000;stroke-width:0.0302267" />
  <path
     id="path861"
     d="M 5.8002878,18.873252 C 5.1527119,18.808821 4.428358,18.614524 3.8144196,18.340573 2.1301478,17.589017 0.85754118,16.0794 0.31279498,14.186804 -0.39538411,11.726398 0.11257594,8.9745176 1.6035722,7.1940014 2.6086536,5.9937545 3.9211259,5.2608738 5.5131341,5.0109131 5.9754697,4.9383219 7.0541397,4.9391306 7.4778697,5.012386 8.9460325,5.2662053 10.219957,5.9710985 11.551019,7.2661584 l 0.385491,0.375065 0.29461,-0.2844348 c 1.375541,-1.3280368 2.74704,-2.083823 4.254306,-2.3444026 0.42373,-0.073255 1.5024,-0.074064 1.964736,-0.00147 1.592008,0.2499607 2.90448,0.9828414 3.909562,2.1830883 1.490996,1.7805162 1.998956,4.5323967 1.290777,6.9928027 -0.654342,2.27336 -2.346182,3.963789 -4.512774,4.50901 -0.508929,0.128072 -0.889858,0.180567 -1.458346,0.200972 -1.901189,0.06824 -3.569139,-0.645466 -5.266446,-2.253482 -0.195034,-0.184774 -0.362895,-0.335952 -0.373024,-0.335952 -0.01013,0 -0.177867,0.142777 -0.372752,0.317282 -1.578467,1.413402 -2.9160298,2.080518 -4.5130351,2.250899 -0.3376422,0.03602 -0.9797332,0.03494 -1.3538361,-0.0023 z m 1.4811083,-2.009271 c 0.5788894,-0.09565 1.3012592,-0.388919 1.8740554,-0.760835 0.6195501,-0.402272 1.0491725,-0.777576 2.0630595,-1.802219 l 0.838879,-0.847778 0.397022,0.422064 c 0.626568,0.666088 1.588756,1.611733 1.86981,1.837662 0.359367,0.288884 0.831165,0.597096 1.162005,0.759105 1.075087,0.526462 2.310937,0.60201 3.482629,0.212897 1.076276,-0.357427 1.970276,-1.167654 2.485318,-2.252429 0.361687,-0.761782 0.520784,-1.521121 0.522302,-2.492855 9.71e-4,-0.619844 -0.05312,-1.085621 -0.185833,-1.600344 -0.39873,-1.5464274 -1.437708,-2.7155193 -2.821787,-3.1751656 -0.946643,-0.3143757 -1.919603,-0.3290715 -2.823747,-0.04265 -0.590657,0.1871124 -1.279873,0.5784968 -1.941799,1.1026874 -0.258049,0.204354 -1.982768,1.9139872 -2.171305,2.1523142 -0.219922,0.277999 -0.02118,0.09903 0.5047,-0.4544735 1.316572,-1.3857455 2.148345,-2.0786957 2.981467,-2.4838606 0.719697,-0.3500042 1.176916,-0.4543491 1.979849,-0.4518344 0.624404,0.00196 0.950159,0.053156 1.441463,0.2265605 0.635942,0.2244546 1.130824,0.5367305 1.59632,1.0072963 0.355973,0.3598495 0.592672,0.6822575 0.815533,1.1108397 0.744963,1.432628 0.7758,3.563883 0.07294,5.041032 -0.424774,0.892712 -1.127909,1.625632 -1.956781,2.039669 -0.598622,0.299022 -1.147255,0.4368 -1.833452,0.460434 -0.408344,0.01406 -0.542201,0.0066 -0.85991,-0.04772 -0.857308,-0.146677 -1.651252,-0.529762 -2.419687,-1.16752 -0.157935,-0.131077 -0.743453,-0.696919 -1.301153,-1.257426 l -1.013999,-1.019104 -0.648469,0.667939 C 10.1206,15.356624 9.4189395,15.935983 8.5871678,16.363235 8.2494044,16.536732 7.7057349,16.727934 7.3116228,16.811828 6.951255,16.888539 6.0483263,16.888051 5.6653643,16.81094 5.0548164,16.688 4.5292272,16.474342 4.0420109,16.151027 3.6735798,15.906536 3.1538559,15.386046 2.903455,15.010791 2.279995,14.076464 1.9737451,12.896908 2.0354449,11.667553 2.110237,10.177338 2.5386172,9.1191741 3.4292114,8.2247397 4.0612484,7.5899773 4.6734612,7.2585022 5.5950261,7.052086 6.0087257,6.9594237 6.8804247,6.9517339 7.2813961,7.0372094 7.8642549,7.1614579 8.4755273,7.4184296 8.9640422,7.744574 9.4403796,8.0625883 9.7296412,8.3228039 10.802251,9.3982013 11.417058,10.014607 11.893129,10.485102 11.860185,10.443747 11.72444,10.27334 10.557329,9.0430028 10.22444,8.7193885 9.5646718,8.0780018 9.0331395,7.6779707 8.4555517,7.3881236 7.3763076,6.8465335 6.1810342,6.7699788 4.988512,7.166067 3.6106723,7.6237071 2.5706347,8.7957221 2.172653,10.339249 2.0396689,10.855013 1.983935,11.323177 1.983935,11.92448 c 0,1.556936 0.4708276,2.820565 1.3972855,3.750099 0.4805891,0.482185 0.9964322,0.805293 1.6132195,1.010469 0.7420637,0.246849 1.5115454,0.307055 2.2869561,0.178933 z m -0.347607,-1.617845 c 0.7764574,-0.09515 1.485207,-0.458242 2.2518891,-1.153633 0.5230755,-0.474436 1.7829728,-1.910879 1.7832398,-2.03312 C 10.96919,11.936209 9.7794542,10.523789 9.1101121,9.8526585 8.3903977,9.1310215 7.8624954,8.8013869 7.1677425,8.6397974 6.8396628,8.5634907 6.0830495,8.5655588 5.7851744,8.6435763 4.5948715,8.955333 3.8519732,9.8447615 3.6380921,11.214153 c -0.068883,0.441029 -0.047649,1.294705 0.041727,1.677581 0.2343533,1.00394 0.7342153,1.710057 1.4705948,2.077396 0.5259192,0.262352 1.1332129,0.356681 1.7833752,0.277006 z m 11.2896729,-0.05741 c 0.506921,-0.122916 1.110746,-0.49832 1.405541,-0.873839 0.493933,-0.629187 0.74081,-1.429515 0.740376,-2.400156 -4.75e-4,-1.06155 -0.325095,-1.977997 -0.906623,-2.5595255 -0.75477,-0.7547701 -1.923345,-0.9838332 -3.067877,-0.6013629 -0.594064,0.1985193 -1.021757,0.4924488 -1.710704,1.1756704 -0.61207,0.606984 -1.689933,1.862685 -1.689933,1.968759 0,0.09598 1.165036,1.466425 1.706311,2.007147 0.823422,0.822582 1.496056,1.219793 2.274941,1.343427 0.277384,0.04403 0.952589,0.0115 1.247968,-0.06012 z"
     style="fill:#000000;stroke-width:0.0302267" />
  <path
     id="path863"
     d="m 7.7864614,15.099951 c 0.2412067,-0.09862 0.4479628,-0.209381 0.6892955,-0.369266 0.5037378,-0.333729 0.9855407,-0.783163 1.6328151,-1.523118 0.2246,-0.25676 0.751866,-0.878579 0.822491,-0.969986 0.02966,-0.03839 0.05913,-0.08906 0.0545,-0.0937 -0.0013,-0.0013 -0.05696,0.06286 -0.123771,0.142506 -0.06681,0.07965 -0.12269,0.143588 -0.124183,0.142095 -0.0015,-0.0015 0.02113,-0.03112 0.05027,-0.06583 0.103092,-0.122815 0.172555,-0.214694 0.172555,-0.22824 0,-0.02672 -0.751503,-0.94623 -1.1751718,-1.437891 C 8.7744098,9.5234502 8.0537731,8.9753225 7.2671033,8.7811749 7.0032172,8.7160487 6.7648125,8.6915025 6.4506174,8.6971094 6.2332212,8.7009889 6.10411,8.7135561 5.9136081,8.7493797 5.5700437,8.8139865 5.2366337,8.9468888 4.9651588,9.1274461 c -0.033797,0.022478 -0.064455,0.042792 -0.068128,0.045142 -0.00445,0.00285 -0.00667,0.00107 -0.00666,-0.00534 C 4.8904127,9.1475162 5.06573,9.0403864 5.2296559,8.9599213 5.5654152,8.7951094 5.9103242,8.7064178 6.3223763,8.6789335 c 0.11754,-0.00784 0.4020013,-0.00328 0.5049491,0.00809 0.2607094,0.028805 0.47738,0.078338 0.7048167,0.1611287 0.6036007,0.219721 1.1821981,0.6487028 1.8519888,1.3730958 0.2813,0.304231 0.5304733,0.596251 1.0233311,1.199297 0.422731,0.517242 0.564186,0.689295 0.566707,0.689295 0.0055,0 -0.01991,-0.04271 -0.05399,-0.09084 -0.06346,-0.08962 -0.198477,-0.258281 -0.474827,-0.593115 C 9.1755898,9.8874066 8.608448,9.3447763 7.8986723,8.9892771 7.5181093,8.7986677 7.2435581,8.7156277 6.8620573,8.675745 6.7312382,8.662069 6.278726,8.6620677 6.1460449,8.6757429 5.8238504,8.708951 5.4785512,8.8110527 5.1842372,8.9601405 5.1046652,9.0004484 4.9829172,9.0710944 4.9237476,9.1112931 l -0.033396,0.022689 V 8.2259804 c 0,-0.8597853 4.966e-4,-0.9081986 0.00935,-0.9117173 0.00514,-0.00204 0.055037,-0.019241 0.1108751,-0.038217 0.9153516,-0.3110629 1.848831,-0.3336556 2.7300955,-0.066076 0.6727476,0.2042675 1.270923,0.5488928 1.9173634,1.1046456 0.3904244,0.335653 0.9071064,0.8452284 1.5482594,1.526965 0.297967,0.3168283 0.36891,0.3901833 0.506215,0.5234243 0.155769,0.151159 0.158975,0.152883 0.03055,0.01644 -0.04712,-0.05006 -0.24549,-0.262866 -0.440829,-0.4728999 C 10.79434,9.3624487 10.693336,9.256443 10.420827,8.9835021 10.010802,8.5728264 9.7451819,8.3334914 9.4126337,8.0750764 8.4305424,7.3119175 7.4593043,6.9705693 6.3731384,7.006825 5.8793241,7.0233083 5.4672552,7.0953372 5.0306151,7.2414953 L 4.8903515,7.2884463 V 6.2429124 5.1973784 L 5.0012266,5.172401 C 5.3260779,5.09922 5.6108236,5.0551567 5.9376532,5.0274927 c 0.3517956,-0.029777 0.7606123,-0.031817 1.0873771,-0.00543 1.1658517,0.09416 2.2165593,0.4878057 3.2701467,1.2251535 0.470084,0.3289865 0.951274,0.7402173 1.49461,1.2773135 l 0.164165,0.1622793 0.13242,-0.1280606 c 1.106412,-1.0699867 2.111727,-1.7524612 3.170129,-2.1520944 0.50627,-0.1911579 1.042396,-0.3175764 1.575356,-0.3714684 0.351771,-0.03557 0.771863,-0.041484 1.128393,-0.015883 0.732058,0.052566 1.409398,0.2099193 2.054959,0.4773901 0.333299,0.1380935 0.689284,0.3251076 0.977874,0.5137183 l 0.07701,0.050332 V 7.437228 8.813709 L 20.990629,8.7078134 C 20.262331,7.7372833 19.211688,7.1530393 17.970936,7.0286151 c -0.325473,-0.032639 -0.692616,-0.031658 -0.991196,0.00265 -0.973407,0.111845 -1.890997,0.5551794 -2.874736,1.3889311 -0.229231,0.1942806 -0.368513,0.3235077 -0.726699,0.6742398 -0.329563,0.3227039 -0.497467,0.4963174 -1.06087,1.096948 -0.133603,0.14243 -0.268964,0.286634 -0.300803,0.320453 -0.05288,0.05617 -0.064,0.0743 -0.03655,0.05961 0.01213,-0.0065 0.20856,-0.209007 0.497928,-0.51335 0.11311,-0.1189628 0.260863,-0.2740543 0.328339,-0.3446478 0.551534,-0.577005 0.988911,-0.9950247 1.396632,-1.33482 0.565833,-0.4715672 1.10733,-0.8082274 1.662663,-1.0337128 0.429542,-0.1744097 0.820354,-0.2654575 1.290426,-0.3006311 0.04114,-0.00308 0.150549,-0.00705 0.243123,-0.00883 0.480926,-0.00923 0.932807,0.045379 1.335844,0.1614298 0.493107,0.1419852 0.991336,0.387658 1.381263,0.6810902 0.168106,0.1265053 0.285685,0.2301911 0.455101,0.4013274 0.170986,0.1727228 0.285465,0.3052459 0.427873,0.4953112 l 0.07078,0.094468 v 3.1325541 3.132554 h -1.230312 -1.230313 l 0.07627,-0.03431 c 0.407285,-0.183218 0.769458,-0.47083 1.030183,-0.818098 0.440218,-0.586339 0.685093,-1.452416 0.668475,-2.364264 -0.0034,-0.184885 -0.008,-0.26276 -0.02531,-0.424799 -0.07481,-0.700711 -0.30488,-1.331439 -0.652093,-1.7876843 -0.5339,-0.7015554 -1.40758,-1.0919088 -2.345676,-1.0480294 -0.69458,0.032489 -1.338733,0.2686547 -1.929602,0.7074487 -0.321761,0.2389483 -0.689579,0.5788488 -1.057248,0.977002 -0.308425,0.333999 -1.140382,1.31937 -1.321231,1.564868 -0.02253,0.03058 -0.04096,0.06033 -0.04096,0.06611 0,0.02966 0.274741,0.370687 0.767689,0.952903 0.523772,0.618623 0.78009,0.899908 1.091525,1.19785 0.513253,0.491017 0.937302,0.787068 1.410932,0.985049 l 0.06145,0.02569 -1.322468,1.54e-4 -1.322469,1.5e-4 -0.398098,-0.399772 c -0.453544,-0.45545 -0.77459,-0.782687 -1.044255,-1.064389 -0.102643,-0.107227 -0.188068,-0.194957 -0.189832,-0.194957 -0.0018,0 -0.201296,0.203182 -0.443403,0.451515 -0.463003,0.47491 -0.896818,0.91078 -1.091594,1.096763 L 10.415673,15.134191 9.0596519,15.134 7.7036311,15.13381 Z"
     style="fill:#000000;stroke-width:0.00534338" />
  <path
     id="path865"
     d="m 7.7870084,15.099795 c 0.3045753,-0.124278 0.602322,-0.295795 0.9078082,-0.522942 0.4269306,-0.317448 0.855081,-0.7312 1.3944644,-1.347572 0.24073,-0.275089 0.771937,-0.901142 0.847833,-0.999211 0.02027,-0.02619 0.05225,-0.08239 0.04883,-0.08581 -0.0014,-0.0014 -0.05722,0.06261 -0.124099,0.142179 -0.06688,0.07957 -0.122758,0.143521 -0.12417,0.142108 -0.0014,-0.0014 0.02608,-0.03703 0.0611,-0.07915 0.07376,-0.08873 0.149159,-0.186988 0.157462,-0.205211 0.0052,-0.01135 9.64e-4,-0.01902 -0.04149,-0.07559 C 10.751059,11.850479 10.077104,11.033215 9.7480106,10.653774 9.3783235,10.22753 9.0329619,9.8720482 8.7369369,9.6130741 8.3151129,9.2440462 7.9221367,8.9997471 7.5186833,8.8557299 7.3353369,8.7902824 7.1022546,8.7375402 6.8941176,8.7144024 6.6383057,8.6859648 6.3082371,8.6901893 6.0578792,8.7251053 5.7342159,8.7702449 5.4220704,8.8707091 5.1495053,9.0174661 5.0805024,9.0546191 4.9737991,9.1192878 4.9277551,9.1518598 c -0.036616,0.025903 -0.037404,0.026221 -0.037404,0.015131 0,-0.017313 0.1632872,-0.1192472 0.3099158,-0.1934697 0.3390836,-0.1716419 0.7008805,-0.266633 1.122109,-0.2946138 0.1196296,-0.00795 0.4023828,-0.0033 0.5076208,0.00834 0.5175203,0.057241 0.960917,0.2229789 1.4266814,0.5332797 0.4571428,0.304557 0.9255991,0.7495793 1.5312196,1.454623 0.1634449,0.190277 0.3524623,0.418307 0.7762163,0.936426 0.224135,0.274049 0.408666,0.49827 0.410068,0.49827 0.0052,0 -0.01604,-0.03603 -0.04982,-0.0847 -0.05992,-0.08633 -0.231186,-0.29963 -0.543386,-0.676729 C 9.1283612,9.8354145 8.5753726,9.3163326 7.8343654,8.9579489 7.4496257,8.7718718 7.14786,8.6916356 6.744503,8.6681665 6.6096741,8.6603215 6.2517835,8.6650478 6.1460449,8.6760697 5.9609723,8.6953612 5.8289522,8.722555 5.6343205,8.7814761 5.3795957,8.8585891 5.1538454,8.9622781 4.943511,9.0987706 L 4.890352,9.1332676 V 8.2256232 c 0,-0.8594414 4.966e-4,-0.907842 0.00935,-0.9113698 0.00514,-0.00205 0.058644,-0.020441 0.1188901,-0.04087 C 5.9787362,6.9478 6.9612688,6.9418245 7.8835977,7.2559589 c 0.558802,0.1903214 1.0697093,0.4814075 1.5955634,0.9090616 0.295933,0.2406695 0.5477039,0.472901 0.9687479,0.8935669 0.30374,0.303467 0.397041,0.3998668 0.801943,0.828581 0.140081,0.1483196 0.280746,0.2964536 0.312587,0.3291876 0.07265,0.07468 0.27395,0.270113 0.263426,0.255743 -0.0043,-0.0059 -0.06194,-0.0684 -0.128086,-0.138927 -0.06614,-0.07053 -0.229651,-0.246045 -0.36335,-0.3900264 C 10.640595,9.1959495 10.334462,8.8825097 9.9852042,8.5617183 9.0518564,7.7044417 8.2305131,7.2485668 7.3037366,7.0734076 7.05529,7.0264517 6.8106634,7.0054741 6.5147379,7.0057482 5.9730619,7.0062499 5.5034741,7.0817601 5.014585,7.2469744 L 4.8903515,7.2889577 V 6.243168 5.1973784 L 5.0012266,5.172401 C 5.3306113,5.098199 5.6468157,5.0498586 5.9670418,5.0247509 c 0.3454452,-0.027085 0.7433684,-0.028095 1.0579885,-0.00268 1.1665654,0.094218 2.2182636,0.4882862 3.2701467,1.2253141 0.482806,0.3382901 0.961299,0.7480691 1.513176,1.2958766 l 0.145272,0.144201 0.09544,-0.093138 c 0.883477,-0.8621376 1.712514,-1.479219 2.550197,-1.8982019 0.4158,-0.2079703 0.782733,-0.3505283 1.204931,-0.4681313 0.39927,-0.1112161 0.794197,-0.1781614 1.253022,-0.2124038 0.176162,-0.013147 0.667601,-0.013209 0.852269,-1.067e-4 0.580685,0.041199 1.059072,0.128332 1.565609,0.2851598 0.527974,0.1634649 1.074463,0.4190137 1.518854,0.7102459 l 0.07614,0.0499 v 1.3767515 1.3767515 l -0.05695,-0.076795 C 20.872534,8.5478621 20.756867,8.4137696 20.589443,8.2462874 20.520241,8.1770616 20.432363,8.0931748 20.394158,8.0598724 19.687812,7.4441683 18.839454,7.0965033 17.85071,7.0175447 17.559604,6.9942976 17.1913,7.0029024 16.916037,7.0393816 15.877856,7.1769668 14.917634,7.679359 13.851193,8.642922 13.622926,8.8491687 13.092214,9.3720978 12.81365,9.6652495 c -0.287289,0.3023331 -0.848668,0.9019745 -0.848668,0.9065095 0,0.02385 0.04754,-0.02444 0.72937,-0.7409191 0.860485,-0.9042148 1.421629,-1.4188649 1.994557,-1.8292957 0.49481,-0.3544702 1.050364,-0.6380408 1.54543,-0.7888322 0.377645,-0.1150262 0.731996,-0.1689467 1.164856,-0.1772525 0.522704,-0.01003 1.014815,0.055895 1.442712,0.1932697 0.457992,0.1470369 0.903737,0.3726658 1.258395,0.636979 0.164636,0.1226967 0.268967,0.2131142 0.432256,0.3746124 0.182154,0.1801548 0.313195,0.3295524 0.455411,0.5192066 l 0.08213,0.1095192 v 3.1325736 3.132575 h -1.229868 c -0.676426,0 -1.228865,-8.92e-4 -1.22764,-0.002 0.0012,-0.0011 0.02868,-0.01333 0.061,-0.0272 0.116264,-0.04988 0.284402,-0.142438 0.406097,-0.22356 0.271618,-0.18106 0.517157,-0.422851 0.70378,-0.693039 0.09167,-0.132713 0.2097,-0.350857 0.281056,-0.519438 0.220164,-0.520147 0.331265,-1.128512 0.319861,-1.751496 -0.0035,-0.192124 -0.0085,-0.272003 -0.02781,-0.446208 -0.05372,-0.484492 -0.17886,-0.925735 -0.373534,-1.317107 C 19.843983,9.8746109 19.681186,9.6462044 19.473734,9.4396053 18.814297,8.7828783 17.834522,8.516437 16.835469,8.722152 c -0.465564,0.095864 -0.928068,0.3008014 -1.333172,0.5907341 -0.341537,0.2444365 -0.732598,0.6014221 -1.13231,1.0336449 -0.246047,0.266058 -0.887631,1.020339 -1.203855,1.415316 -0.12694,0.158553 -0.155934,0.200033 -0.151678,0.216991 0.01493,0.05947 0.896454,1.116795 1.365482,1.637791 0.205321,0.228069 0.479737,0.50266 0.700234,0.70068 0.396168,0.355783 0.779417,0.609815 1.175543,0.779196 0.03967,0.01696 0.07574,0.03219 0.08015,0.03385 0.0044,0.0017 -0.587103,0.0033 -1.31447,0.0036 l -1.322486,6.06e-4 -0.411014,-0.41296 c -0.459264,-0.461439 -0.792766,-0.801678 -1.047728,-1.068893 l -0.170988,-0.179206 -0.117773,0.11834 c -0.06478,0.06509 -0.213856,0.216915 -0.33129,0.337396 -0.582375,0.597488 -0.815758,0.831613 -1.144009,1.147646 l -0.05952,0.05731 -1.3564711,-1.92e-4 -1.3564708,-1.93e-4 0.083369,-0.03402 z"
     style="fill:#000000;stroke-width:0.00534338" />
  <path
     id="path867"
     d="m 7.773103,15.105439 c 0.5179094,-0.21086 0.9992488,-0.540864 1.541564,-1.056889 0.3292763,-0.313314 0.6570387,-0.672976 1.227197,-1.346634 0.280687,-0.33164 0.385765,-0.458042 0.407791,-0.490548 0.0247,-0.03645 0.04009,-0.06593 0.03309,-0.06338 -0.0029,0.0011 -0.05869,0.06517 -0.123953,0.142472 -0.06527,0.0773 -0.119737,0.139473 -0.121046,0.138165 -0.0013,-0.0013 0.03084,-0.04291 0.07145,-0.09245 0.08183,-0.09984 0.115591,-0.143183 0.137446,-0.176469 0.01275,-0.01942 0.01377,-0.02387 0.008,-0.03473 C 10.913747,12.048116 10.072329,11.024678 9.6973246,10.59567 8.9144465,9.7000522 8.3021933,9.1882962 7.7035085,8.9291255 7.4270513,8.8094471 7.1628222,8.7420833 6.8353404,8.7077906 6.7100271,8.6946683 6.3313433,8.6946964 6.2048221,8.7078387 5.7152862,8.7586827 5.3183229,8.8940837 4.9571437,9.1334106 c -0.029389,0.019474 -0.056439,0.037239 -0.060113,0.039479 -0.00442,0.00269 -0.00668,6.715e-4 -0.00668,-0.00598 0,-0.017743 0.1726967,-0.12492 0.3202894,-0.1987749 0.336188,-0.1682275 0.6948466,-0.2615359 1.1117354,-0.2892284 0.1192555,-0.00792 0.4022518,-0.0033 0.5076208,0.00829 0.8277579,0.091051 1.5248128,0.4809045 2.337727,1.3074584 0.3588411,0.3648623 0.620682,0.6681283 1.4087547,1.6316293 0.204328,0.249812 0.378148,0.461409 0.386268,0.470217 l 0.01476,0.01601 -0.01462,-0.02672 C 10.919965,12.007373 10.738121,11.778298 10.313912,11.268262 9.2392743,9.9762008 8.7060336,9.4526455 8.1097357,9.1041211 7.8857383,8.9731991 7.6078081,8.8468304 7.4061915,8.7842353 7.223736,8.7275891 7.0794311,8.6989881 6.8593856,8.6758593 6.745171,8.6638542 6.2885837,8.6619732 6.1754335,8.6730416 5.9613704,8.6939812 5.7814991,8.7324566 5.5635817,8.8039198 5.3455748,8.8754124 5.1272728,8.9789471 4.95185,9.0940475 4.925428,9.1113845 4.900781,9.1274915 4.89708,9.1298415 4.89168,9.1332715 4.89035,8.9547645 4.89035,8.2259804 V 7.3178464 L 4.936466,7.3011594 C 5.2820266,7.1761217 5.686746,7.0836246 6.0471925,7.0473076 6.2145932,7.030441 6.29893,7.0264684 6.4906927,7.026417 c 0.1913414,-5.34e-5 0.2745749,0.00387 0.4435002,0.020891 0.5560849,0.056034 1.1215203,0.2314069 1.642244,0.5093498 0.7315006,0.3904479 1.385339,0.9608108 2.6805861,2.3383565 0.202159,0.2150047 0.310305,0.3262327 0.462381,0.4755607 0.118555,0.116413 0.121588,0.115628 0.01033,-0.0027 -0.04284,-0.04555 -0.22204,-0.237873 -0.398218,-0.4273801 C 10.590982,9.1439718 10.294137,8.8414066 9.9262371,8.5081681 9.0444839,7.7094882 8.2473729,7.2656959 7.3750214,7.0877763 7.1411493,7.0400771 6.9179353,7.0146886 6.667745,7.0073301 6.0742739,6.9898752 5.500572,7.0755306 4.9745097,7.2601352 l -0.084158,0.029533 V 6.2435794 5.1974912 L 5.0012266,5.1722585 C 5.53419,5.0509679 6.0574937,4.9967347 6.616262,5.0048823 c 0.4128358,0.00602 0.7485909,0.040611 1.1301241,0.1164318 0.9681364,0.1923939 1.8743791,0.6144903 2.7817039,1.295621 0.40787,0.3061887 0.792777,0.6440163 1.258932,1.104946 l 0.166841,0.1649701 0.132464,-0.1281124 c 0.711576,-0.688195 1.362126,-1.2010595 2.026692,-1.5977523 0.224431,-0.1339674 0.554172,-0.3054918 0.777461,-0.40442 0.634287,-0.2810194 1.279759,-0.4546634 1.936974,-0.5210818 0.247977,-0.025061 0.34252,-0.029276 0.654563,-0.029187 0.311673,8.95e-5 0.422232,0.00488 0.670594,0.029084 1.039152,0.101251 1.988354,0.4274021 2.847031,0.9782549 l 0.06989,0.044834 2.83e-4,1.3779076 2.83e-4,1.3779075 -0.05695,-0.076795 C 20.788425,8.4344714 20.526315,8.1611175 20.241871,7.9331317 19.839033,7.6102507 19.354179,7.35603 18.848313,7.2024537 18.179943,6.9995427 17.411913,6.9498012 16.74196,7.0660355 15.916617,7.2092294 15.133911,7.5916797 14.302709,8.2579175 14.114903,8.40845 13.90436,8.5910354 13.733974,8.7511301 c -0.154052,0.144747 -0.576216,0.5595828 -0.723632,0.7110712 -0.247349,0.2541793 -1.04536,1.1014877 -1.04536,1.1099357 0,0.02306 0.04828,-0.02601 0.724027,-0.7358882 0.705284,-0.7409045 1.177932,-1.1904817 1.648432,-1.5679669 0.774267,-0.6212002 1.542431,-1.0072722 2.301468,-1.1566963 0.243118,-0.04786 0.471296,-0.070637 0.762958,-0.076159 0.633902,-0.012002 1.194914,0.083597 1.720567,0.2931921 0.360823,0.1438718 0.703343,0.3319517 0.977838,0.5369377 0.166896,0.124634 0.270071,0.2142024 0.43476,0.3774249 0.186702,0.1850405 0.309359,0.3249085 0.452983,0.5165459 l 0.08208,0.1095192 v 3.1325736 3.132575 l -1.230313,-3.63e-4 c -0.914561,-2.67e-4 -1.226884,-0.0019 -1.216954,-0.0064 0.274477,-0.123276 0.448681,-0.227319 0.646549,-0.386151 0.372704,-0.299177 0.641061,-0.676343 0.836311,-1.175406 0.146843,-0.375333 0.23581,-0.788812 0.270758,-1.258366 0.009,-0.120606 0.0089,-0.507315 -1.23e-4,-0.625175 -0.03047,-0.398025 -0.09294,-0.727292 -0.199686,-1.052645 C 20.006026,10.109736 19.754539,9.6980497 19.415002,9.3829247 18.822086,8.8326392 17.996488,8.575979 17.1355,8.6742776 16.557243,8.740297 16.006034,8.955365 15.508673,9.3090249 15.15716,9.5589768 14.723288,9.9574913 14.323854,10.39729 c -0.362338,0.398955 -1.233463,1.438615 -1.298748,1.550014 -0.0088,0.01503 -0.01241,0.02716 -0.01018,0.03421 0.01999,0.06299 0.923811,1.145321 1.365742,1.635487 0.211541,0.23463 0.477915,0.50109 0.69595,0.696175 0.4071,0.364249 0.7734,0.607651 1.176422,0.781719 l 0.09084,0.03923 -1.322543,5.3e-5 -1.322544,5.4e-5 -0.326185,-0.327282 c -0.478146,-0.479793 -0.758763,-0.765151 -1.045942,-1.063655 -0.140511,-0.146052 -0.257559,-0.26555 -0.260106,-0.26555 -0.0025,0 -0.200084,0.200177 -0.438971,0.444837 -0.581312,0.595357 -0.731971,0.74724 -0.990436,0.99848 l -0.219079,0.212954 -1.3572174,-1.5e-4 -1.3572175,-1.49e-4 z"
     style="fill:#000000;stroke-width:0.00534338" />
  <path
     id="path869"
     d="M 11.501689,10.145038 C 11.45186,10.092752 11.330907,9.9646122 11.232902,9.8602828 10.318243,8.8865914 9.7324779,8.3321783 9.2231342,7.9580836 8.2454134,7.2399826 7.1690014,6.9295332 6.0471925,7.042106 5.6939255,7.077556 5.3177398,7.1614964 4.9739257,7.2815896 c -0.062552,0.021849 -0.083574,0.027265 -0.083574,0.021532 0,-0.00421 7.439e-4,-0.00766 0.00165,-0.00766 9.092e-4,0 0.031567,-0.010896 0.068128,-0.024214 0.2861476,-0.1042327 0.6645468,-0.191791 0.990879,-0.2292808 0.3212182,-0.036902 0.6697884,-0.04282 0.959136,-0.016282 1.0431797,0.095676 1.9565152,0.5415596 2.9708307,1.4503391 0.2863766,0.2565798 0.6420186,0.6103462 1.0612386,1.0556408 0.235167,0.2497954 0.654787,0.7037203 0.652579,0.7059283 -0.0014,0.0014 -0.04328,-0.04027 -0.09311,-0.09256 z"
     style="fill:#000000;stroke-width:0.00534338" />
  <path
     id="path871"
     d=""
     style="fill:#000000;stroke-width:0.00534338" />
  <path
     id="path873"
     d="m 7.7063108,15.131938 c 0,-0.0012 0.00902,-0.0052 0.020038,-0.0087 0.046428,-0.01499 0.2148531,-0.08995 0.3165951,-0.140898 0.5844109,-0.292662 1.155579,-0.765165 1.8413426,-1.523266 0.2242595,-0.247916 0.5617445,-0.640096 0.9112845,-1.058974 0.131921,-0.15809 0.196652,-0.244184 0.189196,-0.25164 -0.0029,-0.0029 -0.02095,0.01767 -0.141686,0.160792 -0.05656,0.06705 -0.103931,0.120804 -0.105273,0.119463 -0.0013,-0.0013 0.03078,-0.04297 0.07139,-0.09251 0.0822,-0.10029 0.115575,-0.14316 0.137849,-0.177078 l 0.01503,-0.02288 -0.02483,-0.03635 C 10.84501,11.964883 10.048284,10.998298 9.7078332,10.608355 9.0469799,9.8514328 8.514976,9.3732961 8.0135549,9.0856286 7.6542528,8.8794954 7.2968767,8.7612361 6.8914459,8.7143115 6.6420929,8.6854513 6.2940799,8.6910528 6.0418491,8.7279863 5.6509204,8.7852289 5.2823259,8.9210641 4.9785172,9.1198477 c -0.032327,0.021152 -0.065389,0.04279 -0.073471,0.048085 -0.014277,0.00935 -0.014694,0.00933 -0.014694,-6.68e-4 0,-0.01824 0.1672752,-0.1224903 0.3165647,-0.1972912 0.3179801,-0.1593229 0.6309835,-0.2456401 1.0379812,-0.2862448 0.093706,-0.00935 0.4631683,-0.0094 0.5530394,-7.42e-5 0.3749704,0.038903 0.6967265,0.1286505 1.0184046,0.2840637 0.5932795,0.2866326 1.1539399,0.7648748 1.8889241,1.6112488 0.2023631,0.233032 0.3685118,0.432646 0.8383648,1.007226 0.460253,0.562843 0.444607,0.544207 0.419462,0.499606 -0.04275,-0.07584 -0.174377,-0.242983 -0.536489,-0.681281 C 9.1389328,9.8459328 8.5781075,9.3163996 7.8372235,8.9596175 7.4827776,8.7889295 7.2163842,8.711835 6.8567139,8.6758568 6.7394096,8.6641227 6.2873698,8.6623102 6.1754335,8.6731252 5.812366,8.7082035 5.4243616,8.8266114 5.1147733,8.9968083 5.0661086,9.0235618 4.9381182,9.1017398 4.9023741,9.1265441 l -0.012023,0.00834 V 8.2262453 7.3176036 l 0.029701,-0.011113 c 0.064034,-0.023958 0.212568,-0.071945 0.3067867,-0.099115 0.889558,-0.2565136 1.7811434,-0.2430798 2.6290862,0.039613 0.5629561,0.1876824 1.0622764,0.4675182 1.5896544,0.8908956 0.4585698,0.3681384 0.9394176,0.8342407 1.8099576,1.7544575 0.260087,0.2749293 0.549143,0.5691893 0.549143,0.5590303 0,-0.0025 -0.03326,-0.03979 -0.07391,-0.08278 C 11.69012,10.325602 11.506993,10.129323 11.32382,9.9324191 10.599843,9.1541702 10.265038,8.8135627 9.9076149,8.491668 8.8813947,7.567455 7.9697708,7.1201947 6.907476,7.0197419 6.7861532,7.0082693 6.3916183,7.003519 6.2489325,7.0118128 5.7912244,7.0384178 5.3676399,7.1213902 4.9664946,7.2630191 l -0.076143,0.026883 V 6.2436079 5.1973134 l 0.097517,-0.02224 C 5.3519556,5.0920378 5.6865838,5.0434959 6.0872678,5.015592 6.253146,5.00404 6.7541568,5.002284 6.9048043,5.012722 7.3168438,5.041283 7.6630485,5.093545 8.0120498,5.1798681 9.0600654,5.4390879 10.034857,5.968681 11.029891,6.8194256 c 0.240374,0.2055182 0.473496,0.4218636 0.75994,0.7052516 l 0.164178,0.1624268 0.09799,-0.095778 c 0.737466,-0.7208456 1.470477,-1.2930783 2.170563,-1.694471 0.262192,-0.1503272 0.576425,-0.3053832 0.837299,-0.4131589 0.861916,-0.3560859 1.766268,-0.5150836 2.702688,-0.4751703 1.186976,0.050593 2.25845,0.3812061 3.217964,0.9929331 l 0.08942,0.057007 8.5e-5,1.377831 8.6e-5,1.377831 -0.06587,-0.087978 C 20.838091,8.5042513 20.663303,8.3088061 20.476886,8.1364865 19.795999,7.5070963 18.961593,7.1355572 17.994982,7.031361 17.64722,6.993874 17.249188,6.996849 16.918291,7.039411 c -0.877928,0.11292 -1.734118,0.510647 -2.604896,1.2100551 -0.349923,0.2810581 -0.604161,0.5148358 -1.127577,1.0368312 -0.227805,0.2271868 -0.384494,0.3906785 -0.849688,0.8865737 -0.395247,0.421334 -0.373401,0.397611 -0.369636,0.401375 0.0088,0.0088 0.08951,-0.07348 0.658659,-0.671215 0.576422,-0.6053772 0.928237,-0.9536962 1.284999,-1.2722285 0.58538,-0.5226536 1.093344,-0.8776606 1.63222,-1.1407308 0.682671,-0.3332685 1.288319,-0.4685004 2.035826,-0.4545686 0.444545,0.00829 0.803015,0.058596 1.168315,0.1639711 0.379542,0.1094834 0.799223,0.3005074 1.146362,0.5217842 0.406821,0.2593194 0.824798,0.6622847 1.143963,1.1028764 l 0.03324,0.045884 0.0013,3.1320892 0.0013,3.132088 -1.231648,-4.36e-4 c -1.045306,-3.69e-4 -1.229133,-0.0015 -1.215025,-0.0077 0.34909,-0.153121 0.635735,-0.348566 0.878463,-0.598966 0.295243,-0.304576 0.506536,-0.666345 0.662794,-1.134812 0.211588,-0.634349 0.271327,-1.358737 0.170315,-2.065214 -0.07043,-0.49324 -0.222998,-0.954929 -0.440613,-1.3336521 C 19.57313,9.4298349 19.06697,9.0174545 18.441154,8.8073302 18.025864,8.6678924 17.593415,8.6236826 17.140041,8.6743159 c -0.591863,0.0661 -1.164086,0.293362 -1.672476,0.6642347 -0.39662,0.2893354 -0.849318,0.7201734 -1.312006,1.2486494 -0.483798,0.552589 -1.124102,1.326379 -1.140613,1.3784 -0.0024,0.0076 0.002,0.01965 0.01428,0.03883 0.09608,0.149903 1.0008,1.227643 1.380265,1.64423 0.239894,0.263362 0.534351,0.55229 0.763911,0.749567 0.367591,0.315896 0.712746,0.538596 1.079641,0.696601 l 0.09084,0.03912 -1.322501,1.23e-4 -1.322502,1.23e-4 -0.334308,-0.335297 C 12.892729,14.325663 12.626616,14.055098 12.3291,13.746107 12.186985,13.598511 12.068845,13.47775 12.066565,13.47775 c -0.0023,0 -0.198532,0.198974 -0.436118,0.442165 -0.586318,0.60015 -0.743148,0.758226 -0.995961,1.003877 l -0.216407,0.210276 -1.3558815,6.4e-5 c -0.745735,5.4e-5 -1.3558817,-9.51e-4 -1.3558817,-0.0022 z"
     style="fill:#000000;stroke-width:0.00534338" />
  <path
     id="path875"
     d="m 7.7143258,15.128751 c 0.00588,-0.0026 0.050361,-0.02098 0.098852,-0.04084 0.111535,-0.0457 0.334088,-0.156735 0.4488436,-0.223937 0.5359198,-0.313838 1.0690972,-0.782756 1.712887,-1.506447 0.2093906,-0.235377 0.5175866,-0.594874 0.8176856,-0.953792 0.132852,-0.158891 0.158296,-0.191457 0.181603,-0.232437 0.02406,-0.04231 0.0059,-0.02339 -0.119453,0.124521 -0.06303,0.07436 -0.115742,0.134067 -0.117136,0.132673 -0.0014,-0.0014 0.02484,-0.03579 0.0583,-0.07643 0.07738,-0.094 0.132074,-0.163808 0.151176,-0.19296 l 0.01499,-0.02288 -0.02522,-0.0369 C 10.85502,11.979533 10.158922,11.132413 9.7907413,10.704536 9.0538293,9.8481421 8.4861338,9.3404297 7.9280609,9.0386679 7.6354264,8.8804342 7.3170529,8.7745935 6.99297,8.7278043 6.6946058,8.6847283 6.3254419,8.6855573 6.029764,8.7299675 5.6417824,8.7882414 5.2812295,8.9227944 4.9705022,9.1252681 c -0.036736,0.023937 -0.069798,0.045361 -0.073472,0.047608 -0.00443,0.00271 -0.00668,6.857e-4 -0.00668,-0.006 0,-0.007 0.020031,-0.02321 0.065456,-0.052981 C 5.3016399,8.8872396 5.7146701,8.7424705 6.15673,8.6929653 c 0.2540898,-0.028455 0.5631075,-0.024278 0.8068498,0.010905 0.7488427,0.108093 1.4312248,0.5070053 2.1988308,1.2854095 0.3583609,0.3634022 0.600558,0.6432492 1.3705004,1.5835502 0.468807,0.572536 0.434821,0.531483 0.437649,0.528655 0.0034,-0.0034 -0.05437,-0.08876 -0.102745,-0.151947 C 10.769925,11.82168 10.5342,11.532861 10.242007,11.182764 9.4186369,10.196226 8.9326952,9.6913427 8.4764146,9.3483535 8.0737492,9.045667 7.586772,8.8115033 7.1806081,8.725263 7.0065817,8.6883121 6.8946759,8.6756713 6.6705485,8.6676472 6.4715471,8.6605227 6.2048055,8.6672104 6.0926112,8.6821373 5.6769759,8.7374352 5.2537927,8.8921097 4.9359761,9.1048902 l -0.042953,0.028757 -0.00135,-0.9066093 C 4.8909287,7.7284031 4.8913872,7.3193623 4.8926908,7.3180587 4.89775,7.3129994 5.0314623,7.2670136 5.128854,7.2368383 5.490226,7.1248729 5.8188899,7.0627644 6.2074937,7.0330049 c 0.1284307,-0.00984 0.4620484,-0.00837 0.6011299,0.00264 0.579759,0.045899 1.1047676,0.191777 1.6377448,0.4550614 0.7812995,0.3859526 1.4246737,0.9347008 2.7781846,2.3695748 0.222189,0.2355449 0.574639,0.5949519 0.574736,0.5860799 5.3e-5,-0.0024 -0.03429,-0.04087 -0.07626,-0.08549 -0.04197,-0.04462 -0.190355,-0.203762 -0.329738,-0.353643 C 11.078694,9.6689401 10.93915,9.519851 10.805631,9.3793789 10.064922,8.6000891 9.5437552,8.1387318 8.9994078,7.7804379 8.3140359,7.3293205 7.6545339,7.0898974 6.9048043,7.0200209 6.7777549,7.0081796 6.4014192,7.0034621 6.2542847,7.0118664 5.7910228,7.0383276 5.3662078,7.1215889 4.9584796,7.2658365 l -0.068128,0.024103 V 6.2436338 5.1973285 l 0.097517,-0.022321 C 5.5287515,5.0512027 6.053576,4.9965446 6.6216054,5.004861 c 0.295808,0.00433 0.5235229,0.021495 0.7934914,0.05981 1.1442925,0.1624013 2.2070723,0.6400175 3.2617872,1.4658565 0.361159,0.2827857 0.704671,0.5896016 1.112827,0.9939471 l 0.164034,0.1625023 0.137867,-0.1335805 c 1.021149,-0.9894006 1.971721,-1.6537438 2.950785,-2.0622684 0.621959,-0.2595191 1.264476,-0.4156816 1.929328,-0.4689201 0.332017,-0.026586 0.739662,-0.024645 1.095392,0.00522 0.9631,0.080846 1.86606,0.3606515 2.676747,0.829459 0.07979,0.046142 0.172623,0.1032042 0.284809,0.1750678 l 0.0414,0.02652 v 1.3781458 c 0,0.7579802 -8.68e-4,1.3771439 -0.0019,1.3759194 -0.0011,-0.00122 -0.03522,-0.046617 -0.07588,-0.1008719 C 20.742908,8.3789384 20.461067,8.0960183 20.137675,7.8538028 19.463121,7.3485711 18.660418,7.0654885 17.750356,7.0118862 17.538327,6.9993982 17.155297,7.0100762 16.961038,7.0338942 15.999771,7.1517475 15.107147,7.5808767 14.145079,8.3876668 13.899105,8.5939405 13.740377,8.7407155 13.369631,9.1047169 13.042454,9.425943 12.848572,9.6265908 12.290703,10.2213 c -0.309528,0.329967 -0.327556,0.349598 -0.324175,0.352979 0.0085,0.0085 0.09021,-0.07469 0.653277,-0.6658903 0.582106,-0.6111902 0.944865,-0.9702048 1.297692,-1.2842967 0.591093,-0.5262006 1.082124,-0.8685995 1.630218,-1.1367625 0.547678,-0.2679588 1.031677,-0.4009134 1.616372,-0.4440169 0.122196,-0.00901 0.532449,-0.00894 0.659907,1.122e-4 0.645673,0.045849 1.14019,0.182351 1.704537,0.4705037 0.434382,0.2217939 0.742433,0.4524645 1.103407,0.8262403 0.133559,0.138296 0.244358,0.2691038 0.37054,0.4374572 l 0.06762,0.090214 v 3.133178 3.133178 l -1.230313,-3.53e-4 -1.230312,-3.52e-4 0.03206,-0.01403 c 0.06686,-0.02926 0.253609,-0.124897 0.312603,-0.160092 0.304241,-0.181504 0.569645,-0.419807 0.772063,-0.693227 0.343185,-0.463562 0.568682,-1.106593 0.638117,-1.819666 0.0197,-0.202321 0.02572,-0.582029 0.01203,-0.75876 -0.04788,-0.617864 -0.17979,-1.118611 -0.41455,-1.573624 C 19.821394,9.8419797 19.669872,9.6350221 19.46094,9.4300007 19.259781,9.2326061 19.058796,9.0881527 18.807175,8.96012 17.999241,8.5490183 16.993636,8.5529289 16.089514,8.9706883 15.69968,9.1508149 15.326917,9.4152977 14.895823,9.8176349 c -0.109572,0.1022635 -0.382762,0.3761461 -0.490245,0.4914891 -0.360542,0.386907 -1.368813,1.587731 -1.390494,1.656039 -0.0042,0.01323 0.0053,0.02947 0.05789,0.09926 0.180801,0.239801 0.878804,1.070789 1.24111,1.477569 0.328017,0.368284 0.6798,0.711737 0.980536,0.95732 0.181771,0.148437 0.387418,0.292704 0.565682,0.396844 0.102255,0.05974 0.300929,0.159762 0.408768,0.205801 l 0.07481,0.03194 -1.322501,1.49e-4 -1.322501,1.5e-4 -0.34502,-0.345984 c -0.468427,-0.469734 -0.732929,-0.738668 -1.031496,-1.048781 -0.138566,-0.143925 -0.253637,-0.261682 -0.255712,-0.261682 -0.0021,0 -0.241885,0.243458 -0.532911,0.541017 -0.50477,0.516102 -0.800356,0.812487 -1.017832,1.020585 l -0.09912,0.09484 -1.3565735,-3.63e-4 c -0.790007,-2.09e-4 -1.3521102,-0.0023 -1.3458867,-0.0051 z"
     style="fill:#000000;stroke-width:0.00534338" />
  <path
     id="path877"
     d=""
     style="fill:#000000;stroke-width:0.00534338" />
  <path
     id="path879"
     d="m 6.2748245,16.986277 c -0.2913647,-0.01589 -0.5857441,-0.057 -0.8398438,-0.117278 -0.1166944,-0.02768 -0.1189989,-0.02841 -0.1203888,-0.03802 -6.866e-4,-0.0047 -4.657e-4,-0.0086 4.909e-4,-0.0086 9.565e-4,0 0.0481,0.01135 0.1047639,0.02522 0.2518897,0.06166 0.4924169,0.09944 0.7768528,0.122025 0.1104435,0.0088 0.5016951,0.0101 0.6054687,0.0021 0.4703996,-0.03644 0.8632631,-0.122684 1.2953786,-0.284355 0.7302439,-0.273213 1.4262664,-0.728192 2.2045452,-1.441075 0.300293,-0.275061 0.591748,-0.564253 1.296433,-1.286365 0.256408,-0.262749 0.467667,-0.477202 0.469466,-0.476562 0.0018,6.39e-4 0.08727,0.08905 0.189943,0.196475 0.353311,0.369662 1.026181,1.051349 1.399813,1.418156 0.759573,0.745696 1.243693,1.115741 1.844334,1.409747 0.492356,0.241001 1.01676,0.393933 1.534462,0.447494 0.104254,0.01079 0.105469,0.01099 0.105469,0.01775 0,0.0073 -0.0122,0.0073 -0.0918,-2.63e-4 -0.476134,-0.04508 -0.915629,-0.16033 -1.363281,-0.35749 -0.09685,-0.04266 -0.299955,-0.144173 -0.397456,-0.198659 -0.619623,-0.346261 -1.22412,-0.841455 -1.989442,-1.629718 -0.221157,-0.227786 -0.285638,-0.295334 -0.570132,-0.59725 -0.312851,-0.33201 -0.59821,-0.631248 -0.647487,-0.678976 l -0.01741,-0.01687 -0.02497,0.02705 c -0.05587,0.06053 -0.726361,0.758928 -0.859494,0.895271 -0.279833,0.28658 -0.578839,0.580489 -0.778987,0.765705 -0.8727195,0.807617 -1.6355047,1.301414 -2.4255546,1.57021 -0.3764749,0.128086 -0.723168,0.197802 -1.1484375,0.230937 -0.068664,0.0053 -0.4715914,0.0078 -0.5527344,0.0034 z"
     style="fill:#000000;stroke-width:0.00390625" />
  <path
     id="path881"
     d=""
     style="fill:#000000;stroke-width:0.00390625" />
  <path
     id="path883"
     d=""
     style="fill:#000000;stroke-width:0.00390625" />
  <path
     id="path885"
     d="M 5.2628849,16.82566 C 5.1568066,16.795303 5.054796,16.763033 4.9718693,16.7336 4.1273504,16.433856 3.4218403,15.890296 2.9068063,15.142572 2.6391844,14.754041 2.4205076,14.298556 2.2726657,13.821714 2.0486667,13.099238 1.9652798,12.295711 2.0286864,11.470697 c 0.00626,-0.08149 0.022169,-0.238452 0.029787,-0.293945 0.00411,-0.02996 0.00507,-0.03223 0.013598,-0.03223 0.00505,0 0.00917,0.0014 0.00917,0.003 0,0.0017 -0.00258,0.02409 -0.00573,0.0498 -0.028679,0.23413 -0.042495,0.502473 -0.042326,0.822148 3.126e-4,0.59433 0.043603,0.983047 0.1629508,1.46318 0.2506791,1.008475 0.7482417,1.849398 1.4573689,2.463076 0.4574108,0.395843 1.0050854,0.689545 1.6015625,0.85887 0.023633,0.0067 0.045851,0.01303 0.049373,0.01405 0.00584,0.0017 0.013242,0.02164 0.0077,0.02075 -0.00131,-2.11e-4 -0.023482,-0.0064 -0.049263,-0.0138 z"
     style="fill:#000000;stroke-width:0.00390625" />
  <path
     id="path887"
     d=""
     style="fill:#000000;stroke-width:0.00390625" />
  <path
     id="path889"
     d="M 2.0749422,11.057456 C 2.1925257,10.256094 2.4548537,9.5425312 2.8556322,8.9338882 3.3426649,8.1942553 4.0107102,7.6462399 4.8183343,7.323831 c 0.052806,-0.02108 0.068706,-0.025995 0.071229,-0.022017 0.00179,0.00282 0.00327,0.006 0.00329,0.00707 2.73e-5,0.00107 -0.03818,0.017196 -0.084901,0.035825 C 4.3722738,7.51844 4.0009069,7.752901 3.6233997,8.0925789 3.5368304,8.1704733 3.3755188,8.329905 3.2957505,8.4164096 2.8840698,8.8628565 2.5793632,9.3600322 2.369696,9.9274099 2.2414719,10.274395 2.1447262,10.668799 2.0940652,11.051076 c -0.012878,0.09717 -0.01154,0.0917 -0.022555,0.09232 l -0.00925,5.21e-4 z"
     style="fill:#000000;stroke-width:0.00390625" />
  <path
     id="path891"
     d="m 14.336842,18.17903 c -0.588609,-0.327585 -1.17519,-0.76014 -1.759177,-1.29725 -0.03519,-0.03236 -0.07172,-0.06587 -0.08119,-0.07446 l -0.01721,-0.01563 0.0011,-1.429033 0.0011,-1.429032 0.281588,0.298173 c 0.359989,0.381192 0.461171,0.486404 0.667425,0.694014 0.231979,0.233502 0.416112,0.409912 0.599831,0.574673 0.866472,0.77706 1.662947,1.219233 2.523421,1.400911 0.306226,0.06465 0.587082,0.09293 0.921875,0.09281 0.213253,-7.8e-5 0.363788,-0.008 0.550781,-0.02895 1.130712,-0.126758 2.108054,-0.642272 2.81506,-1.484846 0.22848,-0.272292 0.423734,-0.572976 0.589276,-0.907467 0.13399,-0.270737 0.233687,-0.525963 0.323676,-0.828616 0.264391,-0.889203 0.31334,-1.96443 0.133439,-2.93115 -0.0054,-0.029 -0.0098,-0.05493 -0.0099,-0.05762 -3e-5,-0.0039 0.205563,-0.0049 1.015044,-0.0049 h 1.015081 l 0.0023,0.01855 c 0.0013,0.01021 0.0076,0.05723 0.01402,0.104492 0.04891,0.359737 0.07191,0.719227 0.07197,1.125 4.6e-5,0.275867 -0.0069,0.45904 -0.0268,0.705078 -0.157141,1.944587 -0.977235,3.64408 -2.311051,4.789223 -0.320764,0.275392 -0.659845,0.51097 -1.033587,0.718091 l -0.03614,0.02003 h -3.079202 -3.079201 z"
     style="fill:#000000;stroke-width:0.00390625" />
  <path
     id="path893"
     d="m 17.297889,16.98887 c -0.03867,-0.0015 -0.08988,-0.004 -0.113789,-0.0056 -0.04068,-0.0027 -0.04335,-0.0034 -0.04146,-0.0106 0.0018,-0.0067 0.0044,-0.0074 0.02004,-0.0055 0.09845,0.01208 0.460598,0.01627 0.5981,0.0069 0.30633,-0.02084 0.549967,-0.05864 0.822266,-0.127578 0.329641,-0.08345 0.613588,-0.189941 0.92773,-0.347939 0.370256,-0.18622 0.644544,-0.375572 0.933598,-0.6445 0.411788,-0.383117 0.72827,-0.805069 0.974061,-1.298675 0.244526,-0.491067 0.404415,-1.02301 0.486672,-1.61914 0.07219,-0.523159 0.08183,-1.106114 0.02727,-1.648438 -0.01731,-0.172031 -0.05806,-0.453241 -0.07662,-0.528658 -0.0019,-0.0079 -9.52e-4,-0.0089 0.0071,-0.0078 0.0089,0.0013 0.01,0.005 0.0238,0.07877 0.04889,0.261175 0.07972,0.530121 0.09749,0.850278 0.0065,0.116814 0.0065,0.517377 0,0.636719 -0.01528,0.281475 -0.03885,0.504569 -0.07873,0.745278 -0.129692,0.782933 -0.408698,1.494861 -0.817793,2.086753 -0.664671,0.961669 -1.647361,1.583238 -2.809222,1.776886 -0.317497,0.05292 -0.664171,0.07515 -0.980469,0.06287 z"
     style="fill:#000000;stroke-width:0.00390625" />
  <path
     id="path895"
     d="M 21.850296,10.727714 C 21.716091,10.057124 21.483164,9.4792991 21.138948,8.9630658 20.966763,8.7048337 20.805031,8.5070238 20.579234,8.2784955 L 20.470201,8.168144 h 0.01683 c 0.01592,0 0.01886,0.00196 0.05432,0.036098 0.579751,0.5581865 1.01547,1.3221687 1.245936,2.184605 0.03016,0.112875 0.08257,0.338954 0.08257,0.356195 0,0.0028 -0.0034,0.0051 -0.0075,0.0051 -0.006,0 -0.0084,-0.0044 -0.01203,-0.02246 z"
     style="fill:#000000;stroke-width:0.00390625" />
  <path
     id="path897"
     d="m 10.522364,12.705309 c 0.005,-0.0059 0.05586,-0.06526 0.112958,-0.131835 0.200147,-0.233342 0.323913,-0.389189 0.323913,-0.407876 0,-0.0317 -0.891245,-1.117425 -1.2828367,-1.562774 -0.131019,-0.149005 -0.2793617,-0.312048 -0.3450639,-0.379258 -0.030961,-0.03167 -0.032732,-0.0344 -0.031552,-0.04862 l 0.00125,-0.01506 0.054687,0.05847 c 0.1428004,0.152677 0.3174653,0.349594 0.4884968,0.550731 0.1757138,0.206643 0.3179618,0.378965 0.8688108,1.05249 0.222703,0.2723 0.255595,0.31191 0.257542,0.310139 8.62e-4,-7.85e-4 -0.0052,-0.01244 -0.01346,-0.0259 -0.04878,-0.07943 -0.172394,-0.236575 -0.474028,-0.602598 -0.469777,-0.570061 -0.81773,-0.973878 -1.1145767,-1.293522 l -0.069439,-0.07477 9.838e-4,-1.0411342 9.838e-4,-1.041134 0.060547,0.047122 c 0.3049233,0.2373157 0.6114826,0.514003 1.0267551,0.9267053 0.289736,0.2879432 0.454357,0.4577714 0.852124,0.8790776 0.224499,0.2377843 0.536728,0.5570843 0.552761,0.5652793 0.0043,0.0022 -0.0012,-0.0054 -0.01212,-0.01697 -0.02533,-0.02664 -0.300159,-0.321717 -0.503413,-0.5405014 C 11.191861,9.8209878 11.069742,9.6900308 11.00631,9.622355 10.289231,8.8572978 9.8437566,8.436038 9.3625497,8.067944 L 9.2990785,8.0193924 V 6.8498452 5.6802979 l 0.088867,0.045828 c 0.8097565,0.4175883 1.5420135,0.9748873 2.4059775,1.8311186 l 0.160939,0.1594989 0.08534,-0.083327 c 0.901896,-0.8805597 1.744764,-1.5063288 2.592861,-1.9250097 0.396018,-0.1955024 0.770408,-0.3394339 1.173091,-0.4509861 l 0.07864,-0.021784 h 1.629552 1.629552 l 0.101173,0.027454 c 0.653787,0.1774074 1.268893,0.4555675 1.820611,0.8233079 l 0.06152,0.041008 v 1.4005229 1.4005241 l -0.03366,-0.048557 C 20.865596,8.5511152 20.579243,8.2392503 20.283684,7.9978884 19.69052,7.513495 18.989852,7.2072551 18.205329,7.0895054 c -0.446511,-0.067017 -0.920861,-0.071172 -1.337891,-0.01172 -1.014891,0.1446841 -1.974661,0.6538237 -3.02155,1.6028749 -0.160791,0.1457642 -0.430208,0.4075352 -0.732554,0.7117639 -0.21484,0.2161774 -0.348651,0.3562375 -0.792581,0.8295948 -0.375837,0.40075 -0.353706,0.376889 -0.353706,0.38135 0,0.01882 0.113176,-0.09644 0.671771,-0.6841389 0.348385,-0.3665352 0.728332,-0.7511489 0.9475,-0.9591386 0.621292,-0.5896035 1.128964,-0.9828729 1.652214,-1.2798926 0.207857,-0.1179889 0.4504,-0.2350775 0.662109,-0.3196353 0.56456,-0.2254889 1.133441,-0.3184013 1.792969,-0.2928367 0.666183,0.025823 1.201593,0.160727 1.783203,0.4493037 0.352661,0.1749794 0.616123,0.3512558 0.897143,0.6002586 0.0737,0.065299 0.28823,0.279696 0.358456,0.3582251 0.129223,0.1445028 0.249886,0.2968198 0.35504,0.4481768 l 0.03974,0.057196 9.84e-4,1.8676099 9.85e-4,1.867609 h -0.396826 -0.396826 l 0.0052,-0.03418 c 0.01799,-0.119 0.03414,-0.300264 0.04082,-0.458007 0.005,-0.118588 0.0027,-0.402849 -0.0041,-0.496094 -0.0289,-0.398112 -0.09316,-0.740491 -0.200153,-1.066406 C 19.953894,9.9810772 19.592457,9.4862327 19.066657,9.1409262 18.330007,8.6571501 17.363784,8.552206 16.454232,8.8571837 c -0.5271,0.1767398 -0.958218,0.446158 -1.498206,0.9362732 -0.09366,0.085015 -0.437181,0.4258501 -0.532281,0.5281271 -0.36477,0.3923 -1.32164,1.527938 -1.39982,1.661342 -0.01003,0.01711 -0.01046,0.01951 -0.0057,0.03113 0.01404,0.03392 0.202228,0.270645 0.475043,0.597554 l 0.0872,0.104492 h -1.512446 -1.512493 l 0.0079,-0.0088 c 0.01081,-0.01205 0.158541,-0.187732 0.253758,-0.301758 0.09471,-0.113422 0.132379,-0.161335 0.15124,-0.192384 0.01673,-0.02753 0.01853,-0.03939 0.0034,-0.02213 -0.02549,0.02901 -0.170422,0.200468 -0.301035,0.356116 -0.100546,0.119817 -0.14406,0.168945 -0.14964,0.168945 -0.0076,0 -0.0075,-3.94e-4 0.0013,-0.0108 z"
     style="fill:#000000;stroke-width:0.00390625" />
  <path
     id="path899"
     d="m 11.997328,10.542436 c 0,-0.0013 0.02867,-0.03252 0.06372,-0.06934 0.03504,-0.03681 0.157581,-0.167129 0.272305,-0.28959 C 12.915326,9.562287 13.047036,9.4263951 13.432875,9.0490688 13.73843,8.7502555 13.819793,8.674247 14.018813,8.5016897 15.113522,7.552537 16.113572,7.085523 17.1985,7.0168059 c 0.124334,-0.00788 0.497604,-0.00673 0.611328,0.00188 0.644077,0.048746 1.188666,0.1949258 1.712891,0.4597795 0.341405,0.1724875 0.626174,0.3680215 0.91505,0.6283096 l 0.06349,0.057204 -0.01823,0.00122 c -0.01783,0.00119 -0.01883,6.287e-4 -0.04591,-0.025764 C 20.39826,8.1015547 20.335331,8.0458036 20.269948,7.9913327 20.03345,7.7943022 19.794137,7.6399599 19.489516,7.4880013 19.010551,7.2490724 18.561856,7.1151016 18.052016,7.058794 17.775313,7.028235 17.416817,7.021275 17.139906,7.041088 c -0.51514,0.036858 -0.980165,0.158083 -1.476562,0.3849187 -0.09016,0.0412 -0.301141,0.1481358 -0.384766,0.1950188 C 14.84219,7.8656801 14.450996,8.1488147 13.98561,8.556838 13.596747,8.8977688 13.210856,9.2781472 12.581057,9.9413226 12.456598,10.072377 12.29324,10.243588 12.21804,10.321791 c -0.0752,0.0782 -0.154026,0.160381 -0.175169,0.182617 -0.03446,0.03625 -0.04554,0.0455 -0.04554,0.03803 z"
     style="fill:#000000;stroke-width:0.00390625" />
  <path
     id="path903"
     d="m 16.440215,12.836707 c -0.260691,-0.225754 -0.465076,-0.435264 -0.741863,-0.760465 l -0.09097,-0.106881 0.01736,-0.01812 c 0.0095,-0.01 0.06635,-0.07173 0.12622,-0.137259 0.324082,-0.35468 0.511385,-0.537215 0.73613,-0.717392 0.273269,-0.21908 0.53342,-0.360783 0.729923,-0.397586 0.05389,-0.01009 0.04896,-0.0066 -0.01313,0.0094 -0.4144,0.10653 -0.848333,0.447215 -1.487989,1.168236 -0.04281,0.04825 -0.08034,0.0907 -0.0834,0.09434 -0.005,0.0059 0.0025,0.01585 0.07579,0.09961 0.285615,0.326485 0.512408,0.562077 0.713687,0.741375 0.03582,0.03191 0.06512,0.0586 0.06512,0.05931 0,0.0047 -0.01063,-0.0032 -0.04687,-0.03457 z"
     style="fill:#ffffff;stroke-width:0.00390625" />
  <path
     id="path905"
     d=""
     style="fill:#ffffff;stroke-width:0.00390625" />
  <path
     id="path913"
     d="m 17.710402,13.306292 c 0.14986,-0.03161 0.280614,-0.109269 0.37669,-0.223737 0.05928,-0.07063 0.113367,-0.163019 0.150316,-0.256771 0.02086,-0.05293 0.02513,-0.05102 0.0055,0.0025 -0.01917,0.05227 -0.06669,0.148012 -0.09471,0.1908 -0.08452,0.129077 -0.195541,0.217664 -0.332424,0.265253 -0.0418,0.01453 -0.108688,0.02988 -0.128144,0.02939 -0.0061,-1.51e-4 0.0041,-0.0035 0.02275,-0.0074 z"
     style="fill:#ffffff;stroke-width:0.00390625" />
</svg>
